<svg xmlns="http://www.w3.org/2000/svg" viewBox="0 0 512 512">
  <rect width="512" height="512" rx="128" fill="#e74c3c"/>
  <!-- Simplified Tomato Path -->
  <g transform="translate(256, 280) scale(14)">
    <path d="M0,8 C-10,8 -12,0 -12,-2 C-12,-8 -6,-12 0,-12 C6,-12 12,-8 12,-2 C12,0 10,8 0,8 Z" fill="#ef4444" />
    <path d="M0,-11 C-1,-11 -2,-13 -2,-14 C-2,-15 0,-16 0,-16 C0,-16 2,-15 2,-14 C2,-13 1,-11 0,-11 Z" fill="#22c55e" />
    <path d="M-3,-11 C-2,-10 0,-11 0,-11 C0,-11 2,-10 3,-11 C4,-12 2,-14 2,-14 C2,-14 0,-13 0,-13 C0,-13 -2,-14 -2,-14 C-2,-14 -4,-12 -3,-11 Z" fill="#16a34a" />
  </g>
</svg>
